<svg preserveAspectRatio="none" width="100%" height="100%" overflow="visible" style="display: block;" viewBox="0 0 40 40" fill="none" xmlns="http://www.w3.org/2000/svg">
<g id="Icon">
<path id="Vector" d="M18.3617 4.69C18.4331 4.30767 18.636 3.96236 18.9352 3.71386C19.2344 3.46537 19.6111 3.32934 20 3.32934C20.389 3.32934 20.7657 3.46537 21.0649 3.71386C21.3641 3.96236 21.5669 4.30767 21.6384 4.69L23.39 13.9533C23.5144 14.6119 23.8345 15.2177 24.3084 15.6916C24.7823 16.1655 25.3881 16.4856 26.0467 16.61L35.31 18.3617C35.6924 18.4331 36.0377 18.636 36.2862 18.9352C36.5347 19.2344 36.6707 19.6111 36.6707 20C36.6707 20.3889 36.5347 20.7656 36.2862 21.0648C36.0377 21.364 35.6924 21.5669 35.31 21.6383L26.0467 23.39C25.3881 23.5144 24.7823 23.8345 24.3084 24.3084C23.8345 24.7823 23.5144 25.3881 23.39 26.0467L21.6384 35.31C21.5669 35.6923 21.3641 36.0376 21.0649 36.2861C20.7657 36.5346 20.389 36.6707 20 36.6707C19.6111 36.6707 19.2344 36.5346 18.9352 36.2861C18.636 36.0376 18.4331 35.6923 18.3617 35.31L16.61 26.0467C16.4856 25.3881 16.1656 24.7823 15.6916 24.3084C15.2177 23.8345 14.6119 23.5144 13.9534 23.39L4.69002 21.6383C4.3077 21.5669 3.96238 21.364 3.71389 21.0648C3.46539 20.7656 3.32937 20.3889 3.32937 20C3.32937 19.6111 3.46539 19.2344 3.71389 18.9352C3.96238 18.636 4.3077 18.4331 4.69002 18.3617L13.9534 16.61C14.6119 16.4856 15.2177 16.1655 15.6916 15.6916C16.1656 15.2177 16.4856 14.6119 16.61 13.9533L18.3617 4.69Z" stroke="var(--stroke-0, white)" stroke-width="3.33333" stroke-linecap="round" stroke-linejoin="round"/>
<path id="Vector_2" d="M33.3333 3.33333V10" stroke="var(--stroke-0, white)" stroke-width="3.33333" stroke-linecap="round" stroke-linejoin="round"/>
<path id="Vector_3" d="M36.6667 6.66667H30" stroke="var(--stroke-0, white)" stroke-width="3.33333" stroke-linecap="round" stroke-linejoin="round"/>
<path id="Vector_4" d="M6.66667 36.6667C8.50762 36.6667 10 35.1743 10 33.3333C10 31.4924 8.50762 30 6.66667 30C4.82572 30 3.33333 31.4924 3.33333 33.3333C3.33333 35.1743 4.82572 36.6667 6.66667 36.6667Z" stroke="var(--stroke-0, white)" stroke-width="3.33333" stroke-linecap="round" stroke-linejoin="round"/>
</g>
</svg>
