<svg preserveAspectRatio="none" width="100%" height="100%" overflow="visible" style="display: block;" viewBox="0 0 20 20" fill="none" xmlns="http://www.w3.org/2000/svg">
<g id="Icon" clip-path="url(#clip0_0_4)">
<path id="Vector" d="M9.18085 2.34501C9.21655 2.15385 9.31799 1.98119 9.46759 1.85694C9.6172 1.7327 9.80554 1.66468 10 1.66468C10.1945 1.66468 10.3828 1.7327 10.5324 1.85694C10.682 1.98119 10.7835 2.15385 10.8192 2.34501L11.695 6.97668C11.7572 7.30597 11.9172 7.60886 12.1542 7.84582C12.3912 8.08278 12.6941 8.24281 13.0233 8.30501L17.655 9.18085C17.8462 9.21655 18.0188 9.31799 18.1431 9.46759C18.2673 9.6172 18.3353 9.80554 18.3353 10C18.3353 10.1945 18.2673 10.3828 18.1431 10.5324C18.0188 10.682 17.8462 10.7835 17.655 10.8192L13.0233 11.695C12.6941 11.7572 12.3912 11.9172 12.1542 12.1542C11.9172 12.3912 11.7572 12.6941 11.695 13.0233L10.8192 17.655C10.7835 17.8462 10.682 18.0188 10.5324 18.1431C10.3828 18.2673 10.1945 18.3353 10 18.3353C9.80554 18.3353 9.6172 18.2673 9.46759 18.1431C9.31799 18.0188 9.21655 17.8462 9.18085 17.655L8.30501 13.0233C8.24281 12.6941 8.08278 12.3912 7.84582 12.1542C7.60886 11.9172 7.30597 11.7572 6.97668 11.695L2.34501 10.8192C2.15385 10.7835 1.98119 10.682 1.85694 10.5324C1.7327 10.3828 1.66468 10.1945 1.66468 10C1.66468 9.80554 1.7327 9.6172 1.85694 9.46759C1.98119 9.31799 2.15385 9.21655 2.34501 9.18085L6.97668 8.30501C7.30597 8.24281 7.60886 8.08278 7.84582 7.84582C8.08278 7.60886 8.24281 7.30597 8.30501 6.97668L9.18085 2.34501Z" stroke="var(--stroke-0, #0A0A0A)" stroke-width="1.66667" stroke-linecap="round" stroke-linejoin="round"/>
<path id="Vector_2" d="M16.6667 1.66667V5" stroke="var(--stroke-0, #0A0A0A)" stroke-width="1.66667" stroke-linecap="round" stroke-linejoin="round"/>
<path id="Vector_3" d="M18.3333 3.33333H15" stroke="var(--stroke-0, #0A0A0A)" stroke-width="1.66667" stroke-linecap="round" stroke-linejoin="round"/>
<path id="Vector_4" d="M3.33333 18.3333C4.25381 18.3333 5 17.5871 5 16.6667C5 15.7462 4.25381 15 3.33333 15C2.41286 15 1.66667 15.7462 1.66667 16.6667C1.66667 17.5871 2.41286 18.3333 3.33333 18.3333Z" stroke="var(--stroke-0, #0A0A0A)" stroke-width="1.66667" stroke-linecap="round" stroke-linejoin="round"/>
</g>
<defs>
<clipPath id="clip0_0_4">
<rect width="20" height="20" fill="white"/>
</clipPath>
</defs>
</svg>
